# xmcd CD database file
#
# Track frame offsets:
#	150
#	13314
#	25780
#	39331
#	65624
#	87020
#	94519
#	105773
#	115462
#	133740
#	150134
#	172148
#	177919
#	191675
#
# Disc length: 2632 seconds
#
# Revision: 0
# Processed by: cddbd v1.5.1PL0 Copyright (c) Steve Scherf et al.
# Submitted via: CDex 1.51
#
DISCID=a90a460e
DTITLE=Eisenpimmel - Bau keine Scheiße mit Bier
DYEAR=1997
DGENRE=Deut.-Punk
TTITLE0=Rostbratwurst-Ohzonloch Fuck Off
TTITLE1=Chrommöhre-Schwarzfahren und Saufen
TTITLE2=Bleistift-Geh Kacken
TTITLE3=Die Kupferberger Nullenschrubber-Tu mich mal abfülln
TTITLE4=Erzprengel-Ich brauch ne Brille
TTITLE5=Metallniete-Renn bloß nich weg
TTITLE6=Blecklatte-Nudelsalat
TTITLE7=Stahlschwanz-Mir doch egal
TTITLE8=Hartrohr-Hau wech die Kacke
TTITLE9=Ali Minium und die Gleitplanken-Ich kann auch nciht immer saufen
TTITLE10=Silbergurke Spezial-Mach fettich
TTITLE11=Vulva von vorne-Rubbel die Katz
TTITLE12=Die Legierung-Mach die Scheiße aus
TTITLE13=Eisenpimmel-Bau keien Scheiße mit Bier
EXTD=YEAR: 1997
EXTT0=
EXTT1=
EXTT2=
EXTT3=
EXTT4=
EXTT5=
EXTT6=
EXTT7=
EXTT8=
EXTT9=
EXTT10=
EXTT11=
EXTT12=
EXTT13=
PLAYORDER=
